HIERARCHY
ROOT Hips
{
    OFFSET   0.000000   0.000000   0.000000
    CHANNELS 6 Xposition Yposition Zposition Zrotation Xrotation Yrotation
    JOINT Chest
    {
        OFFSET   0.000000   8.007230   0.000000
        CHANNELS 3 Zrotation Xrotation Yrotation
        JOINT Chest2
        {
            OFFSET   0.000000  22.077100   0.000000
            CHANNELS 3 Zrotation Xrotation Yrotation
            JOINT Neck
            {
                OFFSET   0.000000  23.255100   0.000000
                CHANNELS 3 Zrotation Xrotation Yrotation
                JOINT Head
                {
                    OFFSET   0.000000  14.370100   1.956600
                    CHANNELS 3 Zrotation Xrotation Yrotation
                    End Site
                    {
                        OFFSET   0.000000  19.566000   0.000000
                    }
                }
            }
            JOINT LeftCollar
            {
                OFFSET   3.911900  19.017000  -0.467063
                CHANNELS 3 Zrotation Xrotation Yrotation
                JOINT LeftShoulder
                {
                    OFFSET  10.383700   0.000000   0.000000
                    CHANNELS 3 Zrotation Xrotation Yrotation
                    JOINT LeftElbow
                    {
                        OFFSET  26.662100   0.001193   0.000980
                        CHANNELS 3 Zrotation Xrotation Yrotation
                        JOINT LeftWrist
                        {
                            OFFSET  28.869000  -0.000059  -0.000082
                            CHANNELS 3 Zrotation Xrotation Yrotation
                            JOINT LeftFinger0
                            {
                                OFFSET   2.044650  -2.323450   3.252850
                                CHANNELS 3 Zrotation Xrotation Yrotation
                                JOINT LeftFinger01
                                {
                                    OFFSET   3.088130   0.000000   0.000000
                                    CHANNELS 3 Zrotation Xrotation Yrotation
                                    JOINT LeftFinger02
                                    {
                                        OFFSET   2.639460   0.000000   0.000000
                                        CHANNELS 3 Zrotation Xrotation Yrotation
                                        End Site
                                        {
                                            OFFSET   2.582190   0.000000   0.000000
                                        }
                                    }
                                }
                            }
                            JOINT LeftFinger1
                            {
                                OFFSET   8.364480   0.000000   3.252850
                                CHANNELS 3 Zrotation Xrotation Yrotation
                                JOINT LeftFinger11
                                {
                                    OFFSET   4.646930   0.000000   0.000000
                                    CHANNELS 3 Zrotation Xrotation Yrotation
                                    JOINT LeftFinger12
                                    {
                                        OFFSET   2.323470   0.000000   0.000000
                                        CHANNELS 3 Zrotation Xrotation Yrotation
                                        End Site
                                        {
                                            OFFSET   2.273050   0.000000   0.000000
                                        }
                                    }
                                }
                            }
                            JOINT LeftFinger2
                            {
                                OFFSET   8.364490   0.000016   1.078090
                                CHANNELS 3 Zrotation Xrotation Yrotation
                                JOINT LeftFinger21
                                {
                                    OFFSET   5.111610   0.000000   0.000000
                                    CHANNELS 3 Zrotation Xrotation Yrotation
                                    JOINT LeftFinger22
                                    {
                                        OFFSET   2.788150   0.000016   0.000000
                                        CHANNELS 3 Zrotation Xrotation Yrotation
                                        End Site
                                        {
                                            OFFSET   2.727660   0.000000   0.000000
                                        }
                                    }
                                }
                            }
                            JOINT LeftFinger3
                            {
                                OFFSET   7.899780   0.000015  -1.078090
                                CHANNELS 3 Zrotation Xrotation Yrotation
                                JOINT LeftFinger31
                                {
                                    OFFSET   4.646930   0.000000   0.000000
                                    CHANNELS 3 Zrotation Xrotation Yrotation
                                    JOINT LeftFinger32
                                    {
                                        OFFSET   2.323470   0.000000   0.000000
                                        CHANNELS 3 Zrotation Xrotation Yrotation
                                        End Site
                                        {
                                            OFFSET   2.273050   0.000000   0.000000
                                        }
                                    }
                                }
                            }
                            JOINT LeftFinger4
                            {
                                OFFSET   7.435090   0.000000  -3.252850
                                CHANNELS 3 Zrotation Xrotation Yrotation
                                JOINT LeftFinger41
                                {
                                    OFFSET   3.717550   0.000000   0.000000
                                    CHANNELS 3 Zrotation Xrotation Yrotation
                                    JOINT LeftFinger42
                                    {
                                        OFFSET   1.858770   0.000000   0.000000
                                        CHANNELS 3 Zrotation Xrotation Yrotation
                                        End Site
                                        {
                                            OFFSET   1.818440   0.000000   0.000000
                                        }
                                    }
                                }
                            }
                        }
                    }
                }
            }
            JOINT RightCollar
            {
                OFFSET  -3.911910  19.017000  -0.467062
                CHANNELS 3 Zrotation Xrotation Yrotation
                JOINT RightShoulder
                {
                    OFFSET -10.383700   0.000014   0.000000
                    CHANNELS 3 Zrotation Xrotation Yrotation
                    JOINT RightElbow
                    {
                        OFFSET -26.662100   0.001225   0.001091
                        CHANNELS 3 Zrotation Xrotation Yrotation
                        JOINT RightWrist
                        {
                            OFFSET -28.869000  -0.000020  -0.000085
                            CHANNELS 3 Zrotation Xrotation Yrotation
                            JOINT RightFinger0
                            {
                                OFFSET  -2.044650  -2.323490   3.252850
                                CHANNELS 3 Zrotation Xrotation Yrotation
                                JOINT RightFinger01
                                {
                                    OFFSET  -3.088130   0.000000   0.000000
                                    CHANNELS 3 Zrotation Xrotation Yrotation
                                    JOINT RightFinger02
                                    {
                                        OFFSET  -2.639460   0.000000   0.000000
                                        CHANNELS 3 Zrotation Xrotation Yrotation
                                        End Site
                                        {
                                            OFFSET  -2.582190   0.000000   0.000000
                                        }
                                    }
                                }
                            }
                            JOINT RightFinger1
                            {
                                OFFSET  -8.364480   0.000000   3.252850
                                CHANNELS 3 Zrotation Xrotation Yrotation
                                JOINT RightFinger11
                                {
                                    OFFSET  -4.646930   0.000000   0.000000
                                    CHANNELS 3 Zrotation Xrotation Yrotation
                                    JOINT RightFinger12
                                    {
                                        OFFSET  -2.323470   0.000000   0.000000
                                        CHANNELS 3 Zrotation Xrotation Yrotation
                                        End Site
                                        {
                                            OFFSET  -2.273050   0.000000   0.000000
                                        }
                                    }
                                }
                            }
                            JOINT RightFinger2
                            {
                                OFFSET  -8.364480   0.000000   1.078090
                                CHANNELS 3 Zrotation Xrotation Yrotation
                                JOINT RightFinger21
                                {
                                    OFFSET  -5.111620   0.000000   0.000000
                                    CHANNELS 3 Zrotation Xrotation Yrotation
                                    JOINT RightFinger22
                                    {
                                        OFFSET  -2.788160   0.000000   0.000000
                                        CHANNELS 3 Zrotation Xrotation Yrotation
                                        End Site
                                        {
                                            OFFSET  -2.727660   0.000000   0.000000
                                        }
                                    }
                                }
                            }
                            JOINT RightFinger3
                            {
                                OFFSET  -7.899780   0.000000  -1.078090
                                CHANNELS 3 Zrotation Xrotation Yrotation
                                JOINT RightFinger31
                                {
                                    OFFSET  -4.646930   0.000000   0.000000
                                    CHANNELS 3 Zrotation Xrotation Yrotation
                                    JOINT RightFinger32
                                    {
                                        OFFSET  -2.323470   0.000000   0.000000
                                        CHANNELS 3 Zrotation Xrotation Yrotation
                                        End Site
                                        {
                                            OFFSET  -2.273050   0.000000   0.000000
                                        }
                                    }
                                }
                            }
                            JOINT RightFinger4
                            {
                                OFFSET  -7.435090   0.000000  -3.252850
                                CHANNELS 3 Zrotation Xrotation Yrotation
                                JOINT RightFinger41
                                {
                                    OFFSET  -3.717550   0.000000   0.000000
                                    CHANNELS 3 Zrotation Xrotation Yrotation
                                    JOINT RightFinger42
                                    {
                                        OFFSET  -1.858760   0.000000   0.000000
                                        CHANNELS 3 Zrotation Xrotation Yrotation
                                        End Site
                                        {
                                            OFFSET  -1.818440   0.000000   0.000000
                                        }
                                    }
                                }
                            }
                        }
                    }
                }
            }
        }
    }
    JOINT LeftHip
    {
        OFFSET   9.783030   0.000000   0.000000
        CHANNELS 3 Zrotation Xrotation Yrotation
        JOINT LeftKnee
        {
            OFFSET   0.000063 -41.789100   0.000608
            CHANNELS 3 Zrotation Xrotation Yrotation
            JOINT LeftAnkle
            {
                OFFSET   0.000048 -41.133200  -0.000184
                CHANNELS 3 Zrotation Xrotation Yrotation
                JOINT LeftToe
                {
                    OFFSET   0.000000  -6.358960  14.674500
                    CHANNELS 3 Zrotation Xrotation Yrotation
                    End Site
                    {
                        OFFSET   0.000000   0.000000   3.913200
                    }
                }
            }
        }
    }
    JOINT RightHip
    {
        OFFSET  -9.783030   0.000000   0.000000
        CHANNELS 3 Zrotation Xrotation Yrotation
        JOINT RightKnee
        {
            OFFSET   0.000071 -41.789100   0.001239
            CHANNELS 3 Zrotation Xrotation Yrotation
            JOINT RightAnkle
            {
                OFFSET   0.000037 -41.133200  -0.000166
                CHANNELS 3 Zrotation Xrotation Yrotation
                JOINT RightToe
                {
                    OFFSET   0.000000  -6.358960  14.674500
                    CHANNELS 3 Zrotation Xrotation Yrotation
                    End Site
                    {
                        OFFSET   0.000000   0.000000   3.913200
                    }
                }
            }
        }
    }
}
MOTION
Frames: 6
Frame Time:   0.016667
  0.377603  89.624600  -0.540679  -2.170420  -6.600980   0.071454   0.658885   2.969190  -0.734748   1.358620   5.929470  -1.506720   2.246680   1.181990  -0.046861   3.695370   2.385650  -2.429830  -1.801900  -0.777754   3.951020 -77.210800  13.952100   0.452782  -1.183990  -3.896950 -14.358800  18.868400  -6.081810   2.447680  36.902700  28.229600 -59.507300 -31.573500   0.002885   0.006443 -10.786700   0.001822   0.001132 -36.758800   7.082860  -9.373410 -30.551100   0.002092   0.001133 -21.388000   0.001461  -0.004407 -30.212500  -0.129194   0.221550 -45.315300   0.004192   0.002459 -30.182600   0.001806   0.002797 -29.924600  -0.128007   0.222242 -44.887400   0.003201   0.005682 -29.895000   0.002095   0.000219 -37.284800  -0.324222   0.426835 -55.925100   0.002102  -0.001286 -37.248700  -0.015480   0.000000   7.842550   1.632630   2.853420  71.032200  13.498600  -3.521480  -3.727370  -1.908830  16.049600 -15.093600  -2.116070   1.252730 -40.261900  35.304700  70.276300  30.003900   0.000862  -0.001378  10.002900  -0.001190   0.004636  30.998000   9.376790  15.169200  26.393100  -0.002863  -0.001102  18.463200   0.007161  -0.002503  28.455900   4.920970   8.991370  43.276100   0.001041  -0.003783  28.821400  -0.010818   0.000960  28.514500   3.647420   6.677610  39.754400  -0.001942   0.011876  26.476400  -0.008817   0.001837  39.595900  -0.963617  -1.163920  59.412200  -0.001882  -0.006357  39.566200  -0.003720  -0.004084   2.376770   7.818130   1.062420   1.643280   0.055222   5.933770  -2.387540  -1.984730   0.310129   0.000000   0.000000   0.000000   2.901290   6.891730  -1.069110  -0.659401   1.905220  -5.276090  -0.854974  -3.019190  -2.285580   0.000000   0.000000   0.000000
  0.363252  89.624500  -0.558415  -2.172490  -6.601640   0.086928   0.656856   2.975620  -0.737340   1.354780   5.942290  -1.511900   2.256990   1.193040  -0.046843   3.712390   2.407920  -2.437550  -1.801440  -0.778349   3.959030 -77.196800  13.952100   0.451133  -1.191250  -3.896870 -14.363100  18.868400  -6.093800   2.443060  36.892700  28.220600 -59.505200 -31.573200   0.002874   0.006456 -10.786600   0.001808   0.001132 -36.758800   7.082860  -9.373410 -30.551100   0.002096   0.001122 -21.387800   0.001471  -0.004406 -30.212200  -0.129201   0.221557 -45.315300   0.004236   0.002475 -30.182300   0.001833   0.002810 -29.924400  -0.128012   0.222250 -44.887100   0.003214   0.005686 -29.894800   0.002103   0.000242 -37.284700  -0.324268   0.426841 -55.925100   0.002111  -0.001274 -37.248600  -0.015498   0.000031   7.858000   1.610630   2.877900  71.052600  13.530800  -3.512410  -3.783980  -1.871800  16.091600 -15.076200  -2.079940   1.256940 -40.227200  35.257000  70.223000  30.014300   0.000866  -0.001375  10.002800  -0.001191   0.004628  31.005800   9.363860  15.144300  26.393100  -0.002864  -0.001101  18.462900   0.007162  -0.002503  28.459500   4.910540   8.970700  43.282000   0.001043  -0.003772  28.821200  -0.010818   0.000969  28.517200   3.635580   6.655610  39.769600  -0.001940   0.011871  26.486600  -0.008814   0.001841  39.595500  -0.963646  -1.163940  59.418600  -0.001881  -0.006346  39.565800  -0.003713  -0.004087   2.386710   7.804390   1.053670   1.643730   0.055366   5.932160  -2.395980  -1.965300   0.306555   0.000000   0.000000   0.000000   2.931440   6.880480  -1.069050  -0.678135   1.904980  -5.284170  -0.854948  -3.005330  -2.295820  -0.000000   0.000000   0.000000
  0.338363  89.624300  -0.587423  -2.176960  -6.604300   0.113407   0.653156   2.987840  -0.741051   1.347740   5.966740  -1.519300   2.274830   1.209700  -0.046794   3.741850   2.441530  -2.452400  -1.800780  -0.781018   3.970540 -77.173800  13.952100   0.444855  -1.201420  -3.896730 -14.371800  18.868400  -6.111850   2.435480  36.884200  28.209300 -59.506400 -31.572800   0.002845   0.006494 -10.786300   0.001770   0.001132 -36.758800   7.082860  -9.373410 -30.551100   0.002112   0.001098 -21.387500   0.001489  -0.004404 -30.211900  -0.129212   0.221573 -45.315300   0.004347   0.002515 -30.181900   0.001901   0.002841 -29.924300  -0.128022   0.222266 -44.886800   0.003244   0.005694 -29.894600   0.002124   0.000301 -37.284500  -0.324377   0.426854 -55.925100   0.002130  -0.001242 -37.248400  -0.015542   0.000092   7.890220   1.565290   2.922210  71.083100  13.582700  -3.503620  -3.873770  -1.834520  16.162900 -15.040600  -2.030000   1.261140 -40.176200  35.179500  70.134700  30.024600   0.000872  -0.001372  10.002700  -0.001192   0.004613  31.015700   9.345920  15.115100  26.393100  -0.002867  -0.001096  18.462400   0.007164  -0.002504  28.464700   4.895160   8.940640  43.287900   0.001044  -0.003745  28.820900  -0.010817   0.000985  28.521100   3.618550   6.623890  39.798200  -0.001934   0.011854  26.505600  -0.008807   0.001854  39.594900  -0.963700  -1.163980  59.424900  -0.001880  -0.006317  39.565200  -0.003697  -0.004093   2.404460   7.779200   1.040220   1.645640   0.056375   5.928250  -2.410980  -1.945880   0.299058  -0.000000   0.000000   0.000000   2.982140   6.866900  -1.068980  -0.708087   1.903460  -5.298380  -0.854643  -2.981460  -2.309960   0.000000   0.000000   0.000000
  0.315595  89.624100  -0.609380  -2.182830  -6.609130   0.136681   0.649348   3.000320  -0.742022   1.340360   5.991730  -1.521220   2.291040   1.219680  -0.046710   3.768650   2.461730  -2.471710  -1.802370  -0.786513   3.975290 -77.156200  13.953500   0.432060  -1.206230  -3.900220 -14.381400  18.868200  -6.121400   2.429810  36.884900  28.209600 -59.517500 -31.572600   0.002801   0.006560 -10.786200   0.001707   0.001143 -36.761500   7.086360  -9.377030 -30.553700   0.002141   0.001068 -21.388600   0.001506  -0.004401 -30.213600  -0.129222   0.221597 -45.319200   0.004515   0.002575 -30.183700   0.002003   0.002887 -29.924300  -0.128035   0.222288 -44.886900   0.003291   0.005703 -29.894700   0.002155   0.000393 -37.284600  -0.324536   0.426874 -55.925900   0.002158  -0.001194 -37.248500  -0.015608   0.000158   7.930890   1.510170   2.966490  71.104400  13.629200  -3.517930  -3.949030  -1.872140  16.218200 -14.999700  -2.010890   1.259480 -40.161400  35.131000  70.071800  30.015300   0.000875  -0.001372  10.002700  -0.001191   0.004603  31.010100   9.341690  15.112100  26.387900  -0.002875  -0.001087  18.462200   0.007168  -0.002512  28.466100   4.890610   8.932650  43.285500   0.001044  -0.003705  28.820700  -0.010810   0.001004  28.521900   3.614020   6.615260  39.824000  -0.001927   0.011823  26.522700  -0.008798   0.001876  39.594700  -0.963771  -1.164020  59.421300  -0.001883  -0.006270  39.565000  -0.003672  -0.004102   2.421130   7.747180   1.030680   1.647970   0.089200   5.922310  -2.426000  -1.946560   0.289449  -0.000000   0.000000   0.000000   3.026840   6.864170  -1.073050  -0.732283   1.896330  -5.314850  -0.853800  -2.960500  -2.315290  -0.000000   0.000000   0.000000
  0.293309  89.624000  -0.630846  -2.189630  -6.617000   0.159491   0.645514   3.015640  -0.743702   1.333000   6.022410  -1.524600   2.306860   1.226950  -0.046618   3.794700   2.476360  -2.486790  -1.806180  -0.794343   3.979070 -77.138800  13.961400   0.415764  -1.210090  -3.907480 -14.394200  18.868000  -6.130330   2.423970  36.882900  28.215000 -59.536900 -31.572500   0.002747   0.006643 -10.786200   0.001630   0.001153 -36.768800   7.091690  -9.380690 -30.560200   0.002179   0.001029 -21.392100   0.001528  -0.004397 -30.218400  -0.129231   0.221618 -45.328100   0.004723   0.002649 -30.188500   0.002129   0.002944 -29.924600  -0.128048   0.222307 -44.887400   0.003347   0.005715 -29.895000   0.002194   0.000509 -37.284800  -0.324724   0.426897 -55.929000   0.002192  -0.001134 -37.248700  -0.015692   0.000234   7.976630   1.445830   3.012130  71.115500  13.656000  -3.531940  -3.991200  -1.909640  16.284000 -14.948800  -2.005590   1.247950 -40.131300  35.066500  69.994400  30.005900   0.000876  -0.001372  10.002900  -0.001190   0.004592  31.004400   9.337920  15.109200  26.382700  -0.002882  -0.001072  18.462100   0.007173  -0.002523  28.469100   4.881300   8.916180  43.283100   0.001043  -0.003654  28.820700  -0.010799   0.001026  28.523700   3.605870   6.599830  39.861200  -0.001917   0.011786  26.547500  -0.008788   0.001905  39.594600  -0.963816  -1.164050  59.417800  -0.001887  -0.006211  39.564900  -0.003641  -0.004112   2.439240   7.726600   1.024830   1.648860   0.121161   5.915450  -2.440190  -1.947230   0.278735   0.000000   0.000000  -0.000000   3.067710   6.863750  -1.086720  -0.749953   1.886260  -5.325170  -0.852660  -2.939110  -2.316710  -0.000000   0.000000   0.000000
  0.275074  89.623900  -0.651696  -2.196530  -6.628530   0.180768   0.642654   3.033480  -0.748548   1.327790   6.058080  -1.534400   2.320030   1.231370  -0.046550   3.816200   2.484910  -2.490160  -1.810790  -0.803723   3.986270 -77.123700  13.980400   0.399970  -1.213900  -3.916390 -14.410900  18.867700  -6.143260   2.417520  36.879400  28.221900 -59.566300 -31.575300   0.002691   0.006738 -10.787600   0.001546   0.001149 -36.780800   7.095430  -9.380720 -30.570200   0.002221   0.000977 -21.399000   0.001556  -0.004391 -30.227000  -0.129236   0.221624 -45.341300   0.004957   0.002732 -30.197100   0.002268   0.003006 -29.929300  -0.128052   0.222315 -44.894400   0.003410   0.005730 -29.899700   0.002237   0.000638 -37.288700  -0.324919   0.426919 -55.935900   0.002229  -0.001066 -37.252600  -0.015790   0.000321   8.019630   1.377840   3.054690  71.064500  13.633400  -3.518650  -3.995530  -1.887890  16.366700 -14.897700  -2.049790   1.223110 -40.031200  34.948700  69.877700  30.045600   0.000872  -0.001389  10.022800  -0.001192   0.004582  31.013600   9.322030  15.081200  26.384000  -0.002883  -0.001049  18.465600   0.007178  -0.002533  28.479100   4.844500   8.847910  43.283400   0.001047  -0.003596  28.822300  -0.010788   0.001052  28.530100   3.578650   6.548880  39.920200  -0.001902   0.011748  26.586800  -0.008777   0.001942  39.600100  -0.963810  -1.164050  59.421300  -0.001888  -0.006149  39.570500  -0.003604  -0.004118   2.459080   7.747080   1.023710   1.650320   0.063310   5.909120  -2.449190  -1.909510   0.268530  -0.000000   0.000000   0.000000   3.094580   6.867250  -1.114770  -0.755437   1.875830  -5.318580  -0.851484  -2.917790  -2.316020   0.000000   0.000000   0.000000
